<svg fill="none" role="img" viewBox="0 0 35 24" xmlns="http://www.w3.org/2000/svg"><title>Whimsical</title><linearGradient id="a" gradientUnits="userSpaceOnUse" x1="10.3001" x2="33.7172" y1="12" y2="14.8335"><stop offset="0" stop-color="#4433ff"/><stop offset=".489583" stop-color="#aa33ff"/><stop offset="1" stop-color="#e36bff"/></linearGradient><path clip-rule="evenodd" d="m13.7021 3.50152c-.2462-.24702-.6452-.24702-.8913.00001l-8.02193 8.05107c-.24613.2471-.24613.6476 0 .8946l8.02193 8.0511c.2461.247.6451.247.8913 0l8.0219-8.0511c.2461-.247.2461-.6475 0-.8946zm.4456-3.130978c-.4922-.494056-1.2903-.494056-1.7826 0l-10.69585 10.734758c-.49227.4941-.49227 1.2951 0 1.7892l10.69585 10.7348c.4923.494 1.2904.494 1.7826 0l10.6959-10.7348c.4922-.4941.4922-1.2951 0-1.7892z" fill="#220a33" fill-rule="evenodd"/><path d="m21.3324.370725c.4922-.494056 1.2904-.494056 1.7826 0l10.6959 10.734775c.4922.4941.4922 1.2951 0 1.7892l-10.6959 10.7348c-.4922.494-1.2904.494-1.7826 0l-10.6959-10.7348c-.4922-.4941-.4922-1.2951 0-1.7892z" fill="url(#a)"/></svg>
